<svg id="Capa_1" data-name="Capa 1" xmlns="http://www.w3.org/2000/svg" viewBox="0 0 54.76 51.26"><defs><style>.cls-1{fill:#1d1d1b;}.cls-2{fill:#fff;}</style></defs><title>brute-fav</title><path class="cls-1" d="M52,23.44H1.63v-22H52ZM2.74,22.33H50.9V2.57H2.74Z"/><path class="cls-1" d="M52,48.69H1.63v-22H52ZM2.74,47.58H50.9V27.82H2.74Z"/><path class="cls-1" d="M29.32,11.41q4.77,0,6.78,2.09a5.62,5.62,0,0,1,1.51,4,10,10,0,0,1-.17,1.76l-.38,2A7,7,0,0,1,35.28,25,3.62,3.62,0,0,1,33,26.36l0,.34A3.39,3.39,0,0,1,35.3,28a4.35,4.35,0,0,1,1.22,3.06,7.43,7.43,0,0,1-.17,1.51l-.25,1.3a9.15,9.15,0,0,1-3.2,5.65,10.91,10.91,0,0,1-7.06,2.05h-14l5.32-30.15ZM25.55,29.25h-4l-1,5.78h4.15a4.8,4.8,0,0,0,3.06-.9,2.73,2.73,0,0,0,1.13-2.2Q28.9,29.25,25.55,29.25Zm1.13-11.31H23.54l-1.09,6.24h3.1q4,0,4-3.51a2.7,2.7,0,0,0-.74-2A2.82,2.82,0,0,0,26.68,17.94Z"/><path class="cls-2" d="M33.5,8.35q4.77,0,6.78,2.1a5.59,5.59,0,0,1,1.51,4,9.08,9.08,0,0,1-.17,1.75l-.37,2A7.06,7.06,0,0,1,39.47,22a3.59,3.59,0,0,1-2.33,1.34l0,.34a3.41,3.41,0,0,1,2.39,1.29A4.34,4.34,0,0,1,40.7,28a7.39,7.39,0,0,1-.16,1.51l-.26,1.3a9.1,9.1,0,0,1-3.2,5.65,10.91,10.91,0,0,1-7.06,2H16L21.36,8.35ZM29.73,26.19h-4l-1,5.78h4.14a4.77,4.77,0,0,0,3.06-.9,2.73,2.73,0,0,0,1.13-2.2Q33.08,26.18,29.73,26.19Zm1.13-11.31H27.72l-1.09,6.24h3.1q4,0,4-3.51a2.7,2.7,0,0,0-.73-2A2.9,2.9,0,0,0,30.86,14.88Z"/><path class="cls-1" d="M30,39.06H16a.55.55,0,0,1-.43-.2.53.53,0,0,1-.12-.45L20.81,8.25a.56.56,0,0,1,.55-.46H33.5c3.33,0,5.74.77,7.19,2.27a6.19,6.19,0,0,1,1.66,4.41,10.15,10.15,0,0,1-.18,1.85l-.37,2a7.57,7.57,0,0,1-1.94,4,6.28,6.28,0,0,1-1.35,1.1,5.58,5.58,0,0,1,1.39,1.1A4.92,4.92,0,0,1,41.26,28a7.8,7.8,0,0,1-.18,1.62l-.25,1.29a9.69,9.69,0,0,1-3.4,6A11.46,11.46,0,0,1,30,39.06ZM16.7,37.94H30A10.45,10.45,0,0,0,36.73,36a8.69,8.69,0,0,0,3-5.32L40,29.39a7.19,7.19,0,0,0,.15-1.4,3.72,3.72,0,0,0-1.06-2.67,2.89,2.89,0,0,0-2-1.13.56.56,0,0,1-.42-.18.58.58,0,0,1-.13-.44l0-.34a.55.55,0,0,1,.55-.49,3.18,3.18,0,0,0,1.93-1.17,6.6,6.6,0,0,0,1.63-3.44l.38-2a9.64,9.64,0,0,0,.15-1.65,5,5,0,0,0-1.35-3.64c-1.22-1.27-3.37-1.92-6.38-1.92H21.82Zm12.19-5.41H24.75a.55.55,0,0,1-.43-.2.58.58,0,0,1-.12-.46l1-5.77a.57.57,0,0,1,.55-.47h4c3.23,0,3.91,1.76,3.91,3.24a3.27,3.27,0,0,1-1.34,2.64A5.39,5.39,0,0,1,28.89,32.53Zm-3.48-1.12h3.48a4.24,4.24,0,0,0,2.71-.78,2.16,2.16,0,0,0,.92-1.76c0-1-.31-2.12-2.79-2.12H26.22Zm4.32-9.73h-3.1a.57.57,0,0,1-.55-.65l1.09-6.24a.56.56,0,0,1,.55-.46h3.14a3.44,3.44,0,0,1,2.56.92,3.26,3.26,0,0,1,.89,2.36C34.31,19.47,33.52,21.68,29.73,21.68ZM27.3,20.57h2.43c2.36,0,3.46-.94,3.46-3A2.13,2.13,0,0,0,32.62,16a2.31,2.31,0,0,0-1.76-.59H28.19Z"/></svg>