<svg xmlns="http://www.w3.org/2000/svg" viewBox="0 0 300.52 65.91"><defs><style>.cls-1{fill:none;stroke:#1d1d1b;stroke-linejoin:round;stroke-width:2px;}.cls-2{fill:#1d1d1b;}</style></defs><title>logo</title><g id="Capa_2" data-name="Capa 2"><g id="Capa_1-2" data-name="Capa 1"><path class="cls-1" d="M34.54,5.88q9.16,0,13,4a10.79,10.79,0,0,1,2.9,7.72A18.48,18.48,0,0,1,50.14,21l-.72,3.86A13.64,13.64,0,0,1,46,32c-1.69,1.71-3.17,2.57-4.46,2.57l-.08.64c1.5,0,3,.84,4.58,2.5a8.29,8.29,0,0,1,2.34,5.87,13.63,13.63,0,0,1-.33,2.89L47.57,49a17.6,17.6,0,0,1-6.15,10.86c-3.25,2.62-7.76,3.94-13.56,3.94H1L11.21,5.88ZM27.3,40.14H19.66l-1.93,11.1h8a9.16,9.16,0,0,0,5.87-1.73,5.22,5.22,0,0,0,2.18-4.22Q33.74,40.14,27.3,40.14Zm2.17-21.72h-6l-2.09,12H27.3q7.73,0,7.72-6.76a5.24,5.24,0,0,0-1.4-3.78A5.55,5.55,0,0,0,29.47,18.42Z"/><path class="cls-1" d="M93.42,5.88q9.17,0,13,4a10.78,10.78,0,0,1,2.89,7.72A19.36,19.36,0,0,1,109,21l-1.13,6.27a20.28,20.28,0,0,1-3.33,8.45,14.28,14.28,0,0,1-5.27,4.58l7.32,23.49H90.36L83.6,42.15h-5l-3.3,21.64H59.88L70.09,5.88ZM88.35,18.42h-6l-2.09,14h5.63c2.84,0,4.88-.69,6.11-2.05a7.82,7.82,0,0,0,1.85-5.43Q93.82,18.42,88.35,18.42Z"/><path class="cls-1" d="M158.21,59.56q-6.41,5.36-18.06,5.35T124,59.52q-3.21-3.69-3.22-10.21a34.81,34.81,0,0,1,.65-6.35l6.51-37.08H142.4l-6.51,36.75a25.87,25.87,0,0,0-.33,4.19q0,5.63,6.76,5.63a9.43,9.43,0,0,0,6.43-2.1q2.42-2.09,3.38-7.72l6.52-36.75h14.48L166.61,43Q164.6,54.21,158.21,59.56Z"/><path class="cls-1" d="M237.23,18.42H217.44l-8,45.37H194.92l8-45.37H183l2.25-12.54h54.21Z"/><path class="cls-1" d="M282.27,63.79H241.9L252.11,5.88h40.38l-2.25,12.54h-25.9l-1.85,10.86h21.39l-2.25,12.55h-21.4l-1.6,9.41h25.89Z"/><path class="cls-2" d="M42.58,0q9.16,0,13,4a10.78,10.78,0,0,1,2.89,7.72,19.27,19.27,0,0,1-.32,3.38L57.46,19A13.6,13.6,0,0,1,54,26.14c-1.69,1.72-3.18,2.57-4.47,2.57l-.08.65q2.25,0,4.59,2.49a8.33,8.33,0,0,1,2.33,5.87,14.45,14.45,0,0,1-.32,2.9l-.48,2.49A17.56,17.56,0,0,1,49.45,54q-4.86,3.95-13.55,3.94H9L19.25,0ZM35.34,34.26H27.7l-1.93,11.1h8a9.14,9.14,0,0,0,5.87-1.73,5.21,5.21,0,0,0,2.17-4.22Q41.77,34.27,35.34,34.26Zm2.17-21.71h-6l-2.1,12h6q7.71,0,7.72-6.75A5.17,5.17,0,0,0,41.65,14,5.51,5.51,0,0,0,37.51,12.55Z"/><path class="cls-2" d="M101.45,0q9.18,0,13,4a10.79,10.79,0,0,1,2.9,7.72,19.27,19.27,0,0,1-.32,3.38l-1.13,6.27a20.23,20.23,0,0,1-3.34,8.45,14.11,14.11,0,0,1-5.27,4.58l7.32,23.49H98.4L91.64,36.28h-5l-3.3,21.63H67.91L78.13,0ZM96.38,12.55h-6l-2.09,14h5.63q4.26,0,6.11-2.05a7.78,7.78,0,0,0,1.85-5.43Q101.85,12.55,96.38,12.55Z"/><path class="cls-2" d="M166.24,53.69Q159.85,59,148.18,59T132,53.65q-3.22-3.7-3.22-10.22a34.83,34.83,0,0,1,.64-6.35L136,0h14.48l-6.52,36.76a26.93,26.93,0,0,0-.32,4.18q0,5.63,6.76,5.63a9.49,9.49,0,0,0,6.43-2.09c1.61-1.4,2.73-4,3.38-7.72L166.68,0h14.48l-6.51,37.08Q172.63,48.35,166.24,53.69Z"/><path class="cls-2" d="M245.27,12.55H225.48l-8,45.36H203l8-45.36H191.05L193.31,0h54.21Z"/><path class="cls-2" d="M290.31,57.91H249.93L260.15,0h40.37l-2.25,12.55h-25.9l-1.85,10.86h21.4L289.66,36H268.27l-1.61,9.41h25.9Z"/></g></g></svg>