<svg id="Capa_1" data-name="Capa 1" xmlns="http://www.w3.org/2000/svg" viewBox="0 0 94.65 88.6"><defs><style>.cls-1{fill:none;stroke-miterlimit:10;}.cls-1,.cls-3{stroke:#1d1d1b;stroke-width:2px;}.cls-2{fill:#1d1d1b;}.cls-3{fill:#fff;stroke-linecap:square;stroke-linejoin:round;}</style></defs><title>logo-short</title><rect class="cls-1" x="3.18" y="2.97" width="88.29" height="37.4"/><rect class="cls-1" x="3.18" y="48.22" width="88.29" height="37.4"/><path class="cls-2" d="M51.79,19.82q8.57,0,12.16,3.75a10.08,10.08,0,0,1,2.7,7.21,17.62,17.62,0,0,1-.3,3.15l-.68,3.6a12.73,12.73,0,0,1-3.18,6.68q-2.37,2.4-4.17,2.4l-.07.6q2.1,0,4.27,2.32A7.79,7.79,0,0,1,64.7,55a13.12,13.12,0,0,1-.3,2.7L64,60a16.41,16.41,0,0,1-5.74,10.13q-4.55,3.67-12.64,3.67H20.51l9.52-54ZM45,51.78H37.91l-1.8,10.36h7.43A8.59,8.59,0,0,0,49,60.53a4.88,4.88,0,0,0,2-3.94C51,53.39,49,51.78,45,51.78Zm2-20.25H41.44L39.49,42.71H45q7.2,0,7.2-6.31a4.85,4.85,0,0,0-1.31-3.52A5.15,5.15,0,0,0,47.07,31.53Z"/><path class="cls-3" d="M59.29,14.34q8.55,0,12.15,3.75a10.06,10.06,0,0,1,2.7,7.21,18.55,18.55,0,0,1-.29,3.15l-.68,3.6A12.66,12.66,0,0,1,70,38.73q-2.36,2.4-4.16,2.4l-.08.6q2.1,0,4.28,2.32a7.76,7.76,0,0,1,2.17,5.48,13.12,13.12,0,0,1-.3,2.7l-.45,2.33A16.36,16.36,0,0,1,65.7,64.69q-4.53,3.68-12.64,3.67H28l9.53-54Zm-6.75,32H45.41l-1.8,10.36H51a8.56,8.56,0,0,0,5.47-1.61,4.89,4.89,0,0,0,2-3.94Q58.54,46.3,52.54,46.3Zm2-20.26H48.93L47,37.23h5.56q7.2,0,7.2-6.31a4.85,4.85,0,0,0-1.31-3.52A5.18,5.18,0,0,0,54.56,26Z"/></svg>